<?xml version="1.0" standalone="no"?>
<!DOCTYPE svg PUBLIC "-//W3C//DTD SVG 20010904//EN"
 "http://www.w3.org/TR/2001/REC-SVG-20010904/DTD/svg10.dtd">
<svg version="1.0" xmlns="http://www.w3.org/2000/svg"
 width="700.000000pt" height="700.000000pt" viewBox="0 0 700.000000 700.000000"
 preserveAspectRatio="xMidYMid meet">
<metadata>
Created by potrace 1.14, written by Peter Selinger 2001-2017
</metadata>
<g transform="translate(0.000000,700.000000) scale(0.100000,-0.100000)"
fill="#000000" stroke="none">
<path d="M3369 6828 c-74 -55 -225 -170 -336 -255 l-203 -154 0 -3174 0 -3175
647 2 647 3 1 3173 0 3172 -89 73 c-48 39 -102 84 -120 98 -262 219 -365 304
-387 320 l-27 19 -133 -102z"/>
<path d="M2438 6084 c-23 -19 -52 -42 -63 -51 -11 -9 -34 -28 -51 -42 -17 -14
-49 -40 -70 -57 -57 -46 -485 -393 -509 -412 -11 -10 -56 -46 -100 -82 -44
-36 -89 -72 -100 -82 -11 -9 -93 -76 -182 -148 -115 -93 -163 -139 -164 -154
-1 -27 -1 -4946 0 -4968 1 -17 39 -18 646 -18 l645 0 0 3025 c0 1664 -2 3025
-4 3025 -2 0 -24 -16 -48 -36z"/>
<path d="M4510 3096 l0 -3026 645 0 c607 0 645 1 646 18 1 22 1 4975 0 4983
-1 6 -67 61 -161 136 -8 6 -44 36 -80 65 -36 30 -123 101 -195 158 -71 58
-132 107 -135 110 -3 3 -41 35 -85 70 -44 35 -199 161 -345 279 -146 118 -271
219 -277 224 -10 8 -13 -597 -13 -3017z"/>
</g>
</svg>
