<?xml version="1.0" encoding="utf-8"?>
<!-- Generator: Adobe Illustrator 27.4.1, SVG Export Plug-In . SVG Version: 6.00 Build 0)  -->
<svg version="1.1" id="Layer_1" xmlns="http://www.w3.org/2000/svg" xmlns:xlink="http://www.w3.org/1999/xlink" x="0px" y="0px"
	 viewBox="0 0 340 170" style="enable-background:new 0 0 340 170;" xml:space="preserve">
<style type="text/css">
	.st0{fill:#FFFFFF;}
	.st1{font-family:'ArialMT';}
	.st2{font-size:31.7987px;}
	.st3{fill:#5D6D95;}
	.st4{fill:#2B416B;}
	.st5{fill:#A2AAC6;}
</style>
<g id="g10" transform="matrix(1.3333333,0,0,-1.3333333,0,415.76)">
	<text transform="matrix(0.78 0 0 -0.75 140.2877 239.5957)" class="st0 st1 st2">o</text>
	<text transform="matrix(0.78 0 0 -0.75 154.1774 239.5957)" class="st0 st1 st2">p</text>
	<text transform="matrix(0.78 0 0 -0.75 167.9184 239.5957)" class="st0 st1 st2">t</text>
	<text transform="matrix(0.78 0 0 -0.75 175.8805 239.5957)" class="st0 st1 st2">i</text>
	<text transform="matrix(0.78 0 0 -0.75 181.4359 239.5957)" class="st0 st1 st2">o</text>
	<text transform="matrix(0.78 0 0 -0.75 195.3256 239.5957)" class="st0 st1 st2">n</text>
	<text transform="matrix(0.78 0 0 -0.75 208.9428 239.5957)" class="st0 st1 st2">s</text>
	<text transform="matrix(0.72 0 0 -0.75 32.577 239.5957)" class="st0 st1 st2">p</text>
	<text transform="matrix(0.72 0 0 -0.75 45.1007 239.5957)" class="st0 st1 st2">r</text>
	<text transform="matrix(0.72 0 0 -0.75 52.5644 239.5957)" class="st0 st1 st2">o</text>
	<text transform="matrix(0.72 0 0 -0.75 65.1566 239.5957)" class="st0 st1 st2">p</text>
	<text transform="matrix(0.72 0 0 -0.75 77.6803 239.5957)" class="st0 st1 st2">e</text>
	<text transform="matrix(0.72 0 0 -0.75 89.2196 239.5957)" class="st0 st1 st2">r</text>
	<text transform="matrix(0.72 0 0 -0.75 97.4388 239.5957)" class="st0 st1 st2">t</text>
	<text transform="matrix(0.72 0 0 -0.75 104.6737 239.5957)" class="st0 st1 st2">y</text>
	<g id="g22" transform="translate(128.2469,91.1672)">
		<path id="path24" class="st3" d="M-0.1,170.1l-2.4-1.9v-23.6h4.8v23.6L-0.1,170.1z"/>
	</g>
	<g id="g26" transform="translate(119.6737,84.2759)">
		<path id="path28" class="st4" d="M-0.1,170.1v-18.6h4.8V174L-0.1,170.1z"/>
	</g>
	<g id="g30" transform="translate(131.9797,88.1667)">
		<path id="path32" class="st5" d="M-0.1,170.1v-22.5h4.8v18.6L-0.1,170.1z"/>
	</g>
	<g id="g50" transform="translate(131.9797,244.0767)">
	</g>
</g>
</svg>
